<svg aria-hidden="true" style="position:absolute;width:0;height:0;overflow:hidden" xmlns="http://www.w3.org/2000/svg"><defs>
<symbol id="border-line" viewBox="0 0 42816 32"><path fill="#c4c4c4" style="fill:var(--color1, #c4c4c4)" d="m0 0 42816 32H0z"/></symbol>
<symbol id="bulb-icon" viewBox="0 0 32 32"><path d="M18.723 19.994a5.803 5.803 0 0 0 3.09-2.034l.01-.013a5.789 5.789 0 0 0 1.188-4.343 5.802 5.802 0 0 0-2.246-3.886l-.014-.01c-1.215-.922-2.724-1.325-4.249-1.133s-2.888.954-3.838 2.148a5.785 5.785 0 0 0-1.27 3.557c-.026 2.117-.74 4.177-2.009 5.802l-1.389 1.777a1.812 1.812 0 0 0 .309 2.544l.004.003 1.33 1.039a1.812 1.812 0 0 0 2.544-.309l.003-.004 1.389-1.777c1.283-1.643 3.06-2.808 5.149-3.361zm-6.582-5.706a5.036 5.036 0 0 1 1.107-3.1c1.706-2.143 4.869-2.54 7.05-.885a5.048 5.048 0 0 1 1.97 3.397 5.029 5.029 0 0 1-1.044 3.797l.008-.011a5.058 5.058 0 0 1-2.667 1.776l-.035.008c-2.201.583-4.087 1.794-5.465 3.508l-3.007-2.349c1.316-1.735 2.054-3.91 2.082-6.141zm-3.4 7.831.186-.238 2.742 2.698-.073.093c-.039.049-.08.093-.124.132l-.001.001-2.73-2.686zm.65-.832.209-.267 3.011 2.353-.479.613-2.742-2.698zm-.622 2.529a1.067 1.067 0 0 1-.396-1.016l-.001.006 2.31 2.273a1.058 1.058 0 0 1-.586-.225l.002.002-1.33-1.039z"/><path d="M13.966 12.523c.098-.173.21-.339.335-.496a.373.373 0 1 0-.585-.467l-.001.001a4.471 4.471 0 0 0-.389.571l-.012.022a.374.374 0 1 0 .65.37l.001-.002zm-1.763 5.83a.374.374 0 0 0 .581-.166l.001-.003c.429-1.152.685-2.484.702-3.872v-.008c.003-.219.024-.438.065-.651a.377.377 0 0 0-.368-.443.374.374 0 0 0-.367.302v.002a4.502 4.502 0 0 0-.077.78 11.112 11.112 0 0 1-.682 3.713l.025-.077a.373.373 0 0 0 .121.421l.001.001zm7.331-.569a.373.373 0 0 0-.509-.147l.002-.001a3.748 3.748 0 0 1-.839.334.374.374 0 1 0 .194.722l-.003.001c.383-.103.718-.24 1.03-.413l-.023.012a.373.373 0 0 0 .148-.507zm-.006-6.375a3.743 3.743 0 0 1 .415 5.516.373.373 0 1 0 .544.512c.092-.097.181-.201.266-.309l.008-.01a4.493 4.493 0 0 0-.773-6.298.374.374 0 0 0-.461.589l.001.001zM21.214 9.251a.374.374 0 0 0 .525-.064l1.289-1.65a.374.374 0 0 0-.589-.461l-.001.001-1.289 1.65a.374.374 0 0 0 .064.524l.001.001zm-3.436-1.747a.373.373 0 0 0 .74.106v-.002l.291-2.073a.373.373 0 0 0-.74-.106v.002l-.291 2.073zm3.13 15.118-.784-1.941a.374.374 0 1 0-.693.282l-.001-.003.784 1.941a.374.374 0 1 0 .693-.282l.001.003zm-7.445-16.43.784 1.941a.374.374 0 1 0 .693-.283l.001.003-.784-1.941a.374.374 0 1 0-.693.283l-.001-.003zm11.054 13.469-1.65-1.289a.374.374 0 0 0-.461.589l.001.001 1.65 1.289a.373.373 0 0 0 .461-.588h-.001zm-12.488-9.282a.374.374 0 0 0-.064-.524l-.001-.001-1.65-1.289a.374.374 0 0 0-.461.589l.001.001 1.65 1.289a.374.374 0 0 0 .525-.064zm11.778 5.286c.05.039.11.066.178.075l2.073.291a.374.374 0 0 0 .106-.74h-.002L24.089 15a.374.374 0 0 0-.283.664l.001.001zm-13.42-2.591-2.073-.291a.373.373 0 0 0-.106.74h.002l2.073.291a.373.373 0 0 0 .106-.74h-.002zm12.866-1.118a.376.376 0 0 0 .49.206l-.002.001 1.941-.785a.374.374 0 1 0-.282-.693l.003-.001-1.941.784a.376.376 0 0 0-.206.49l-.001-.002z"/></symbol>
<symbol id="burger-menu" viewBox="0 0 57 32">
<path fill="#39515e" style="fill: var(--color1, #39515e)" d="M1.684 0h53.102c0.93 0 1.684 0.754 1.684 1.684v2.279c0 0.93-0.754 1.684-1.684 1.684h-53.102c-0.93 0-1.684-0.754-1.684-1.684v-2.279c0-0.93 0.754-1.684 1.684-1.684z"></path>
<path fill="#39515e" style="fill: var(--color1, #39515e)" d="M1.684 13.176h53.102c0.93 0 1.684 0.754 1.684 1.684v2.279c0 0.93-0.754 1.684-1.684 1.684h-53.102c-0.93 0-1.684-0.754-1.684-1.684v-2.279c0-0.93 0.754-1.684 1.684-1.684z"></path>
<path fill="#39515e" style="fill: var(--color1, #39515e)" d="M1.684 26.353h36.574c0.93 0 1.684 0.754 1.684 1.684v2.279c0 0.93-0.754 1.684-1.684 1.684h-36.574c-0.93 0-1.684-0.754-1.684-1.684v-2.279c0-0.93 0.754-1.684 1.684-1.684z"></path>
</symbol>
</defs></svg>